<?xml version="1.0" encoding="iso-8859-1"?>
<!-- Generator: Adobe Illustrator 19.0.0, SVG Export Plug-In . SVG Version: 6.00 Build 0)  -->
<svg xmlns="http://www.w3.org/2000/svg" xmlns:xlink="http://www.w3.org/1999/xlink" version="1.1" id="Capa_1" x="0px" y="0px" viewBox="0 0 512 512" style="enable-background:new 0 0 512 512;" xml:space="preserve" width="512" height="512">
<g>
	<path d="M460.674,457.273l-78.056-134.019c9.036-1.136,18.324-3.084,23.717-11c6.482-9.515,1.746-18.801,3.678-28.891   c2.999-15.654,28.804-13.338,29.988-33.663c0.527-9.054-5.52-15.695-7.13-24.054c-1.55-8.046,4.098-11.031,9.125-17.031   c14.159-16.9,6.38-28.072-5.536-42.857c-5-6.203-4.603-8.065-1.841-15.402c3.65-9.697,8.488-19.599,2.594-29.558   c-4.257-7.192-12.233-10.271-19.161-14.219c-8.813-5.022-7.936-8.216-7.761-17.821c0.429-23.496-11.08-28.261-31.772-32.118   c-16.593-3.094-10.703-25.136-25.154-33.408c-8.456-4.841-17.858-2.08-26.742-0.433c-9.546,1.77-10.873,0.449-16.761-6.832   C295.641-1.619,284.042-2.41,264.7,8.946c-6.853,4.023-9.104,4.761-16.091,0.829c-8.264-4.65-16.215-11.232-26.412-9.488   c-16.477,2.817-18.611,25.497-35.321,22.841c-21.326-3.389-33.467-2.147-41.006,19.826c-2.705,7.884-2.506,11.287-10.798,13.432   c-8.105,2.097-16.625,1.102-23.85,6.204c-16.293,11.506-0.918,34.168-15.458,43.048c-7.426,4.536-16.287,7.235-20.978,15.159   c-5.519,9.323-1.565,18.963,2.001,28.148c3.303,8.509,3.903,10.892-2.229,17.869c-6.515,7.413-13.929,14.662-12.928,25.345   c0.901,9.609,8.231,15.452,13.909,22.504c5.956,7.397,3.715,10.306,0.444,18.733c-4.178,10.764-6.6,21.318,2.32,30.53   c5.888,6.081,18.763,7.841,23.006,14.742c4.147,6.745-1.016,19.936,1.518,27.745c3.885,11.977,15.074,15.394,26.565,16.839   L51.324,457.273c-4.821,8.285,4.435,18.075,13.101,13.819l51.764-25.371l3.72,57.136c0.613,9.539,13.796,12.653,18.641,4.306   l75.796-130.109c7.828,4.976,16.191,3.587,24.091-0.232c5.064-2.448,11.69-9.628,17.562-9.628c5.438,0,12.653,7.184,17.221,9.45   c7.955,3.946,16.437,5.491,24.432,0.409h0.01l75.786,130.109c4.845,8.345,18.028,5.231,18.641-4.306l3.72-57.136l51.764,25.371   C456.241,475.327,465.5,465.566,460.674,457.273z M137.74,468.924l-2.56-39.298c-0.435-6.844-8.113-11.353-14.411-8.236   l-35.623,17.451l60.134-103.234c0.02,0.059,0.03,0.109,0.05,0.158c3.805,12.306,9.304,23.208,23.782,24.145   c11.42,0.74,22.752-8.463,31.002,1.918L137.74,468.924z M301.352,343.754c-3.714,3.546-9.683,15.448-14.941,16.868   c-10.079,0.346-18.862-13.227-30.412-13.225c-6.248,0.001-11.883,2.903-17.131,5.934c-3.25,1.877-9.061,7.509-13.191,7.311   c-8.452-2.151-13.432-17.928-22.311-21.93c-6.258-2.821-12.801-2.177-19.42-1.039c-4.04,0.694-11.301,4.054-15.263,2.399   c-3.369-2.412-4.218-10.554-5.482-14.07c-2.036-5.665-4.414-11.405-9.149-15.398c-8.596-7.248-24.724-2.479-31.792-9.186   c-2.008-3.002-0.441-9.541-0.387-13.01c0.117-7.51,0.146-14.74-4.341-21.179c-5.524-7.928-21.882-10.03-25.604-17.809   c-0.791-3.483,2.851-9.049,4.123-12.251c2.77-6.975,5.257-13.912,3.277-21.451c-2.378-9.054-17.408-17.19-17.89-25.503   c0.484-8.378,15.502-16.416,17.89-25.503c1.762-6.705-0.079-13.103-2.434-19.445c-1.404-3.781-5.895-10.076-4.996-14.198   c3.785-7.892,20.063-9.882,25.634-17.878c3.959-5.682,4.451-12.268,4.434-19.004c-0.01-4.011-2.078-11.614,0.254-15.126   c6.991-6.754,23.23-2.073,31.832-9.245c8.553-7.131,6.736-23.799,14.571-29.429c3.336-1.424,9.534,1.21,12.975,1.859   c7.457,1.406,14.66,2.685,21.846-0.581c8.722-3.964,13.864-19.73,22.143-21.868c10.072-0.349,18.869,13.223,30.412,13.225   c11.464,0.002,20.386-13.66,30.332-13.235c8.352,2.091,13.491,17.907,22.225,21.878c6.344,2.884,12.998,2.221,19.704,1.044   c3.995-0.701,11.144-3.996,15.055-2.363c7.91,5.623,6.056,22.318,14.631,29.469c8.635,7.2,24.688,2.502,31.792,9.186   c2.013,2.999,0.45,9.549,0.397,13.018c-0.116,7.511-0.157,14.731,4.332,21.172c5.538,7.947,21.859,10.014,25.614,17.809   c0.774,3.498-2.856,9.036-4.133,12.251c-2.771,6.975-5.26,13.922-3.276,21.46c2.382,9.051,17.412,17.181,17.89,25.503   c-0.484,8.379-15.501,16.418-17.89,25.503c-1.763,6.702,0.08,13.096,2.434,19.435c1.404,3.781,5.895,10.076,4.996,14.197   c-3.693,7.854-20.102,9.939-25.634,17.878c-3.962,5.686-4.443,12.27-4.425,19.009c0.01,4.008,2.076,11.623-0.253,15.131   c-7.09,6.739-23.192,2.065-31.842,9.245c-8.608,7.146-6.689,23.75-14.571,29.429c-5.009,2.107-14.391-2.556-19.561-3.086   C315.156,336.067,307.701,337.667,301.352,343.754C298.532,346.446,303.913,341.299,301.352,343.754z M391.229,421.39   c-6.207-3.061-13.972,1.341-14.411,8.226l-2.56,39.298l-62.375-107.075c8.276-10.47,19.532-1.184,31.009-1.928   c14.451-0.937,19.966-11.826,23.775-24.145c0.02-0.05,0.03-0.099,0.05-0.158l60.134,103.234L391.229,421.39z"/>
	<path d="M256.001,310.114c-66.71,0-120.983-53.788-120.983-119.903S189.291,70.308,256.001,70.308s120.983,53.788,120.983,119.903   S322.711,310.114,256.001,310.114z M256.001,90.106c-55.681,0-100.981,44.907-100.981,100.106s45.3,100.106,100.981,100.106   s100.981-44.907,100.981-100.106S311.682,90.106,256.001,90.106z"/>
	<path d="M289.013,252.732c-1.658,0-3.322-0.408-4.83-1.232l-29.358-16.034l-29.983,14.845c-3.406,1.686-7.48,1.311-10.514-0.963   c-3.034-2.276-4.499-6.058-3.781-9.758l6.33-32.588l-23.535-23.641c-2.672-2.684-3.573-6.637-2.323-10.196s4.432-6.108,8.21-6.574   l33.268-4.106l15.438-29.454c1.753-3.345,5.284-5.419,9.078-5.338c3.806,0.076,7.239,2.284,8.855,5.695l14.233,30.051l33.077,5.436   c3.755,0.617,6.831,3.291,7.933,6.897c1.103,3.606,0.042,7.519-2.737,10.095l-24.473,22.677l5.004,32.814   c0.568,3.726-1.05,7.448-4.175,9.601C293.018,252.136,291.019,252.732,289.013,252.732z M255.053,214.387   c1.666,0,3.33,0.412,4.831,1.232l16.216,8.856l-2.764-18.125c-0.491-3.221,0.651-6.476,3.054-8.703l13.52-12.528l-18.274-3.003   c-3.247-0.534-6.02-2.614-7.417-5.563l-7.863-16.602l-8.528,16.271c-1.516,2.892-4.373,4.861-7.64,5.265l-18.376,2.268   l13.001,13.06c2.31,2.32,3.319,5.617,2.697,8.816l-3.497,18.005l16.566-8.202C251.989,214.735,253.522,214.387,255.053,214.387z"/>
</g>















</svg>
